<svg id="Layer_1" data-name="Layer 1" xmlns="http://www.w3.org/2000/svg" viewBox="0 0 295.72 62"><defs><style>.cls-1{fill:#ffe500;}</style></defs><rect class="cls-1" width="62" height="62"/><path d="M24.64,17.77V45.06H19.07V17.77ZM20.9,28H41v5H20.9ZM43,17.77V45.06H37.4V17.77Z"/><path d="M86.33,36.58l.11,1.24-3.58,7.8H76.58l13.84-28.9,13.85,28.9H98l-3.51-7.56.08-1.41-4.1-9.47ZM84,35h13.1l.66,4.41H83.28Z"/><path d="M134.65,18.32v27.3H129V18.32Z"/><path d="M167.88,18.32v27.3H162.3V18.32Zm-2.19,0h5.77a12.54,12.54,0,0,1,5.5,1.1,8,8,0,0,1,3.47,3A8.44,8.44,0,0,1,181.64,27a8.44,8.44,0,0,1-1.21,4.54A7.93,7.93,0,0,1,177,34.62a12.54,12.54,0,0,1-5.5,1.1h-5.77V31.27h5.42a6.09,6.09,0,0,0,2.56-.49,3.72,3.72,0,0,0,1.65-1.4,4.42,4.42,0,0,0,0-4.41,3.72,3.72,0,0,0-1.65-1.4,6.09,6.09,0,0,0-2.56-.49h-5.42Zm8.7,14.59,8.89,12.71h-6.59L168.5,32.91Z"/><path d="M213.82,18.32V40.75H224.7v4.87H208.24V18.32Z"/><path d="M268.46,18.32l-9.4,16V45.62H253.4V34.35l-9.4-16h6.36l5.85,11,5.89-11Z"/><path d="M290.24,41.08a3.19,3.19,0,1,1,4.58,4.43,3.19,3.19,0,1,1-4.58-4.43Z"/></svg>